Simulation
nRows=49
nColumns=15
endheader
time  TH_x TH_y TH_z SC_y  SC_z  SC_x  AC_y  AC_z  AC_x  GH_y  GH_z  GH_yy  EL_x  PS_y
1.5  0.000000  0.000000  0.000000  -38.34633221999595  8.314774332201338  15.958947335497902  39.54134205549997  19.811222015442535  7.319967909612982  1.184381150027643  56.063000484869406  7.214421508563476  19.869937152999785  0.000000
1.53  0.000000  0.000000  0.000000  -38.164344937740466  8.196002439008971  15.335397772561212  39.65717193635847  19.631130299309007  7.222472538567251  0.8761545099566429  55.625458576395886  7.039845696315844  20.124324973398952  0.000000
1.56  0.000000  0.000000  0.000000  -37.84361301540973  8.017754946591626  14.638547129445382  39.687473686268646  19.599245645709996  7.103483538770858  0.44117223254005833  54.830218569769244  6.798037218619329  20.414851704950525  0.000000
1.5899999999999999  0.000000  0.000000  0.000000  -37.38949519799675  7.731632435468603  14.084146561771465  39.47898037618281  19.878779385291736  6.98442728938165  -0.08567003190565683  53.377646485290335  6.554085135644177  20.836468991927656  0.000000
1.6199999999999999  0.000000  0.000000  0.000000  -37.12076225613249  7.436063348653823  13.363029952377653  39.62767552846355  19.69972345698315  6.686882497229747  -0.5942290951115335  52.20772343234403  6.120088687007033  21.373478834021643  0.000000
1.65  0.000000  0.000000  0.000000  -37.1566134313425  7.159793747745029  12.251963302974229  40.26184884058363  18.81186898976749  6.4521315104415935  -1.145448975367163  51.71810328006972  5.500901494626506  21.983926435783545  0.000000
1.68  0.000000  0.000000  0.000000  -36.79595643600174  6.778711429142286  11.293130508506025  40.15714298712661  18.907641806837773  6.455854080698898  -1.89078659438853  49.92406544700777  5.26272815900817  22.67620380685066  0.000000
1.71  0.000000  0.000000  0.000000  -35.92262223574967  6.28623077668312  10.893252322391929  39.13689564746887  20.47427397152136  6.328472412513337  -2.7742229254117814  46.048621034148525  5.204073689256835  23.49258568488933  0.000000
1.74  0.000000  0.000000  0.000000  -35.36486966548497  5.9980420881028484  10.123106662392427  39.02593554394925  20.07006563515664  5.944908419156556  -3.5696119550908185  44.14322748974626  5.019128904032923  24.41377630053094  0.000000
1.77  0.000000  0.000000  0.000000  -35.54826388388339  5.600125757029622  8.728283581930803  40.60158824862221  17.976003329766822  5.505726393366929  -4.377550999937086  44.33157434044352  4.294150490448366  25.31510053340646  0.000000
1.7999999999999998  0.000000  0.000000  0.000000  -35.60770849561175  4.939186608639577  7.831176804721756  40.983538586267464  17.36903736479059  5.74538020698645  -5.0382417647087365  42.60199677484908  4.5183184295731875  26.45083697422292  0.000000
1.8299999999999998  0.000000  0.000000  0.000000  -35.019024593726535  4.700101632529406  6.98830132678997  40.9631618255414  18.017560612293085  5.681849012432781  -5.82905962770277  39.29336099258717  4.8332297862868  27.476684896306296  0.000000
1.8599999999999999  0.000000  0.000000  0.000000  -34.550238033701305  4.707361505705321  6.291148844380161  41.156545144418395  17.21471491869409  6.241297241928974  -6.868443814771221  37.673905688019616  5.834834006666491  28.502063396335345  0.000000
1.89  0.000000  0.000000  0.000000  -33.921428598140885  5.42477529963039  5.245482348258647  42.929807319984974  15.020979608609363  7.196835992216267  -8.959701903009487  38.14847040317789  6.802677455363107  29.19211851945037  0.000000
1.92  0.000000  0.000000  0.000000  -32.915676611509646  7.097324565969731  4.703599710321136  43.34441673072246  13.92945925367986  9.427887282877439  -12.00167204986961  37.4033996462444  9.729796675258942  30.04405161241692  0.000000
1.95  0.000000  0.000000  0.000000  -28.116627014134487  10.270183385493787  5.109628479950503  39.98655894051975  18.414187086462118  10.542308084808441  -18.34021125572411  29.678671630049497  15.294514375819858  28.142392909048763  0.000000
1.98  0.000000  0.000000  0.000000  -22.428919360925367  5.1378554981140505  10.508769801119717  34.449478146325205  28.061672184071863  9.265814234332357  -26.47820598147281  22.953642361204803  20.995751518086458  26.573590904056847  0.000000
2.01  0.000000  0.000000  0.000000  -25.281189024545544  -2.5468349009132303  14.995019815899395  49.53019908934339  23.148074955036726  2.420136044758551  -29.353384968746624  32.74233038622648  20.2314623495851  25.85810307604947  0.000000
2.04  0.000000  0.000000  0.000000  -25.931555119044297  10.806556798304609  2.2733575701212145  57.522669251743196  -3.3582275483382  13.25482060910299  -18.297772136407026  52.93587739940049  10.458160906683997  24.740375293173436  0.000000
2.07  0.000000  0.000000  0.000000  -21.520511325799887  34.36587667579329  -10.809011876852217  34.0338165275099  -30.55373735225545  35.03823738941081  -4.197351009561313  53.365937486367855  8.713624076759928  25.89609072186883  0.000000
2.1  0.000000  0.000000  0.000000  -18.935084668064892  38.28435242461308  -0.8334613697325318  24.586379634057074  -37.72401527386995  26.45710863964762  -6.310727136358233  44.53162180963626  9.991731291580885  23.78031783745209  0.000000
2.13  0.000000  0.000000  0.000000  -15.86496615544297  27.08626294207844  7.240008293755177  19.55023020293969  -30.871971425177538  13.476471879276133  -8.70611748774276  44.320128704237746  9.594742141793196  23.235286725004297  0.000000
2.16  0.000000  0.000000  0.000000  -13.467503276955332  22.85697017900072  -2.4741181417001696  15.354727408192065  -25.486413171558393  15.567225289428032  -1.482979381500154  41.28879814039422  7.792365352339356  24.965304689303117  0.000000
2.19  0.000000  0.000000  0.000000  -13.331427708494816  27.940133873051423  -7.709386447934702  17.764729381946598  -29.077871419249565  18.89607560306218  2.4381360592712724  39.23193646787345  7.923905947243909  24.306331666143894  0.000000
2.2199999999999998  0.000000  0.000000  0.000000  -14.864361591953712  31.863642334374163  0.18864418677417313  18.71223841254124  -34.7073271841017  17.042981099252884  -2.8847515250779017  37.554322216529705  10.829004136655158  23.507039839087994  0.000000
2.25  0.000000  0.000000  0.000000  -14.027797053571271  30.01537614318215  3.975372521712899  18.18088863712386  -33.18425536415638  14.850556894146743  -7.699035173185323  34.76187191815427  13.270535335186462  23.550427437251336  0.000000
2.28  0.000000  0.000000  0.000000  -11.151904932277482  27.605286447943858  0.32787227830148646  18.23156603996521  -31.207516158395787  16.43803073905671  -9.58665398018372  33.16560281896234  16.24946381204725  24.330495858695286  0.000000
2.31  0.000000  0.000000  0.000000  -12.703369528141248  26.253555435371663  0.5599255922041843  20.59646389463457  -30.129520106071176  19.02464509596343  -14.898721610601084  31.406666221947056  20.966484801043716  23.966350223120685  0.000000
2.34  0.000000  0.000000  0.000000  -16.169268938242777  30.239236212977513  -0.7126184189729766  26.461180218995654  -28.663099388553263  26.87408507361597  -24.400925597708234  28.12335350161274  28.235738386276964  22.07127803781069  0.000000
2.37  0.000000  0.000000  0.000000  -18.98201098202832  38.576738106390415  -6.792415175195518  35.87716142109946  -29.4655070743908  41.5908644651236  -33.407342926668356  29.414242604640982  34.83748448072569  21.523099480069334  0.000000
2.4  0.000000  0.000000  0.000000  -26.875067231824897  39.78879939452897  -13.039497791467937  48.51341447418436  -16.294758480445488  59.333303446810895  -45.58466365728262  38.76197107168117  41.09900762576285  22.99731203158871  0.000000
2.4299999999999997  0.000000  0.000000  0.000000  -31.68989828304639  41.22950959746027  -31.211029500855247  64.87824579142122  8.009123199547345  89.04163303119486  -53.65294669646052  57.49254014590755  42.52279582969886  21.422079640614342  0.000000
2.46  0.000000  0.000000  0.000000  -29.322266289855442  33.93850927735508  -48.893461923557524  72.87669512715162  25.330647498536685  92.34083186498822  -50.269777557729455  67.14090912148454  40.88575643179476  19.37723769457027  0.000000
2.4899999999999998  0.000000  0.000000  0.000000  -32.46627630912464  12.37475661124055  -39.49351618314156  74.62989319128543  36.70441964132266  53.576784973202976  -55.16259094531939  51.70214738362046  49.456228019502085  22.656383916428656  0.000000
2.52  0.000000  0.000000  0.000000  -36.46910516288836  -2.413460952289997  -23.041925921865758  59.27932641400072  38.53020508189353  29.150353883276253  -65.79689338361976  28.6490440759381  66.02637315837714  27.644116132685976  0.000000
2.55  0.000000  0.000000  0.000000  -32.55129201401662  -3.770429021762606  -15.435854071533848  42.053098327615565  31.51771222001758  17.10721883568386  -69.68522492871472  10.464440171829875  73.81428157022475  28.514867507649715  0.000000
2.58  0.000000  0.000000  0.000000  -29.63488289176962  -0.2084644083313622  -8.89011273941224  37.041529445467205  20.093346553085787  8.504492004571388  -68.01052616159423  4.629643995830319  76.57059199705478  25.554482869661424  0.000000
2.61  0.000000  0.000000  0.000000  -29.575347508817057  -0.12255058372955478  -3.917941497771462  36.17672874545827  13.232024456987814  5.561387226080034  -66.37386569869722  4.944772566329732  77.08749697045283  22.889659961947423  0.000000
2.6399999999999997  0.000000  0.000000  0.000000  -29.254654547062753  -0.7492192352289032  -1.4202186783411714  38.651842820980285  11.550805920733653  1.1248361927266461  -65.10679590671019  3.5337033350157676  76.44046087170662  21.858258481936485  0.000000
2.67  0.000000  0.000000  0.000000  -29.01796892394978  -0.7903162912322961  1.0080455152718342  37.05586589648719  8.882259153623101  0.7586666428699496  -63.114956010901984  5.431132988625969  76.96423110840102  21.553500165822705  0.000000
2.6999999999999997  0.000000  0.000000  0.000000  -28.650573070377597  -0.7935915347572132  2.0940207579408985  40.181917051872794  8.014216552176318  -1.0932169070073712  -62.43666126671587  5.891983952485998  75.76078395841539  21.4754314519868  0.000000
2.73  0.000000  0.000000  0.000000  -29.622424527038714  -0.6193272638437236  3.6650554990259514  39.448511452849736  5.62769823815385  0.18242164870630886  -61.09765110379912  9.249468375976603  74.99319566458018  21.356078193825137  0.000000
2.76  0.000000  0.000000  0.000000  -31.97524410466614  1.6575045046524386  4.185532705034287  44.28362814659589  1.7573119036757094  2.565376198701023  -58.01747753934288  13.030820477512957  74.3728869707802  22.58043890435462  0.000000
2.79  0.000000  0.000000  0.000000  -31.858079158310634  3.2319888736700664  1.8306723710569281  57.50061073999289  -0.3341787327872977  2.5040810344137876  -56.39999953864664  14.303773303867915  72.99484614796047  23.90126085601211  0.000000
2.82  0.000000  0.000000  0.000000  -35.39037798743743  -7.184470718668826  4.719648660247055  43.185944083692995  -3.955425929720882  12.20128852421719  -55.54071428876927  30.609109819457263  78.20727649126796  23.190405366348447  0.000000
2.85  0.000000  0.000000  0.000000  -37.97678095439052  -16.87205867677704  10.368438644282744  27.12186669223431  -6.711796210407564  17.559166657535215  -55.90529948373643  43.84312391971254  81.64522100013457  22.0298360144126  0.000000
2.88  0.000000  0.000000  0.000000  -31.045726448177437  -6.383502239864024  8.494774465506403  40.35458787146456  -7.786969000341143  8.140356426521798  -56.65957751449978  29.479847512837203  76.09895910059798  23.076581466216545  0.000000
2.9099999999999997  0.000000  0.000000  0.000000  -29.086508336274683  6.835278572653499  5.567492593581291  54.39411090226459  -5.91631004284713  0.6976529761659779  -52.955798417190756  10.76553890806616  71.84642104422092  26.17231467413891  0.000000
2.94  0.000000  0.000000  0.000000  -27.001751028806947  17.118552873319928  3.2283495384863006  47.21324286208111  -9.537779081199927  6.122604464739527  -48.626253443187544  4.562923329995597  70.66176243632894  25.05103136654712  0.000000
